@startuml diagrama-contexto-administrador

left to right direction
skinparam linetype polyline

state "SESION_CERRADA" as NoAuth
state "UNIVERSIDAD_DISPONIBLE" as Menu

state "ESPACIOS_ABIERTO" as ListEspacios
state "ESPACIO_ABIERTO" as EditEspacio
state "RECORRIDOS_ABIERTO" as ListRecorridos
state "RECORRIDO_ABIERTO" as EditRecorrido
state "REGIONES_ABIERTO" as ListRegiones
state "REGION_ABIERTO" as EditRegion
state "PLANTAS_ABIERTO" as ListPlantas
state "PLANTA_ABIERTO" as EditPlanta

[*] --> NoAuth

NoAuth --> Menu : iniciarSesion()

Menu --> NoAuth : cerrarSesion()
Menu --> ListEspacios: abrirEspacios()
Menu --> ListRecorridos: abrirRecorridos()
Menu --> ListRegiones: abrirRegiones()
Menu --> ListPlantas: abrirPlantas()


ListEspacios --> EditEspacio: crearEspacio()
ListEspacios --> EditEspacio: editarEspacio()
ListEspacios --> ListEspacios: eliminarEspacio()

EditEspacio --> EditEspacio: editarEspacio()
EditEspacio --> ListEspacios: abrirEspacios()

ListRecorridos --> EditRecorrido: crearRecorrido()
ListRecorridos --> EditRecorrido: editarRecorrido()
ListRecorridos --> ListRecorridos: eliminarRecorrido()

EditRecorrido --> EditRecorrido: editarRecorrido()
EditRecorrido --> ListRecorridos: abrirRecorridos()

ListRegiones --> EditRegion: crearRegion()
ListRegiones --> EditRegion: editarRegion()
ListRegiones --> ListRegiones: eliminarRegion()

EditRegion --> EditRegion: editarRegion()
EditRegion --> ListRegiones: abrirRegiones()

ListPlantas --> EditPlanta: crearPlanta()
ListPlantas --> EditPlanta: editarPlanta()
ListPlantas --> ListPlantas: eliminarPlanta()

EditPlanta --> EditPlanta: editarPlanta()
EditPlanta --> ListPlantas: abrirPlantas()


ListEspacios --> Menu: completarGestion()
ListRecorridos --> Menu: completarGestion()
ListRegiones --> Menu: completarGestion()
ListPlantas --> Menu: completarGestion()

@enduml
